<svg width="19" height="14" viewBox="0 0 19 14" fill="none" xmlns="http://www.w3.org/2000/svg">
<path d="M16.7 12.25H14.9V4.59375L9.5 7.875L4.1 4.59375V12.25H2.3V1.75H3.38L9.5 5.46875L15.62 1.75H16.7M16.7 0H2.3C1.301 0 0.5 0.77875 0.5 1.75V12.25C0.5 12.7141 0.689642 13.1592 1.02721 13.4874C1.36477 13.8156 1.82261 14 2.3 14H16.7C17.1774 14 17.6352 13.8156 17.9728 13.4874C18.3104 13.1592 18.5 12.7141 18.5 12.25V1.75C18.5 1.28587 18.3104 0.840752 17.9728 0.512563C17.6352 0.184374 17.1774 0 16.7 0Z" fill="white"/>
</svg>
