<svg width="19" height="18" viewBox="0 0 19 18" fill="none" xmlns="http://www.w3.org/2000/svg">
<path d="M18.5 13.42V16.956C18.5001 17.2092 18.4042 17.453 18.2316 17.6382C18.059 17.8234 17.8226 17.9363 17.57 17.954C17.133 17.984 16.776 18 16.5 18C7.663 18 0.5 10.837 0.5 2C0.5 1.724 0.515 1.367 0.546 0.93C0.563722 0.677444 0.676581 0.441011 0.861804 0.268409C1.04703 0.0958068 1.29082 -0.000114433 1.544 2.56579e-07H5.08C5.20404 -0.000125334 5.3237 0.045859 5.41573 0.12902C5.50776 0.212182 5.5656 0.326583 5.578 0.45C5.601 0.68 5.622 0.863 5.642 1.002C5.84073 2.38892 6.248 3.73783 6.85 5.003C6.945 5.203 6.883 5.442 6.703 5.57L4.545 7.112C5.86445 10.1865 8.31455 12.6365 11.389 13.956L12.929 11.802C12.9919 11.714 13.0838 11.6509 13.1885 11.6237C13.2932 11.5964 13.4042 11.6068 13.502 11.653C14.767 12.2539 16.1156 12.6602 17.502 12.858C17.641 12.878 17.824 12.899 18.052 12.922C18.1752 12.9346 18.2894 12.9926 18.3724 13.0846C18.4553 13.1766 18.5002 13.2961 18.5 13.42Z" fill="white"/>
</svg>
